<mxfile host="app.diagrams.net" modified="2024-06-16T15:19:55.422Z" agent="Mozilla/5.0 (Windows NT 10.0; Win64; x64) AppleWebKit/537.36 (KHTML, like Gecko) Chrome/126.0.0.0 Safari/537.36" etag="9BE2agN5QkeLT45HopxT" version="24.5.4" type="github" pages="2">
  <diagram name="Top Page" id="jzyZ-utd5EVz8HLpz6nn">
    <mxGraphModel dx="819" dy="448" grid="1" gridSize="10" guides="1" tooltips="1" connect="1" arrows="1" fold="1" page="1" pageScale="1" pageWidth="827" pageHeight="1169" math="0" shadow="0">
      <root>
        <mxCell id="0" />
        <mxCell id="1" parent="0" />
        <mxCell id="FBT5wMlfSQGBCRLELtxl-1" value="" style="strokeWidth=1;shadow=0;dashed=0;align=center;html=1;shape=mxgraph.mockup.containers.browserWindow;rSize=0;strokeColor=#666666;strokeColor2=#008cff;strokeColor3=#c4c4c4;mainText=,;recursiveResize=0;fontSize=12;" vertex="1" parent="1">
          <mxGeometry x="40" y="40" width="760" height="600" as="geometry" />
        </mxCell>
        <mxCell id="FBT5wMlfSQGBCRLELtxl-2" value="SingSong" style="strokeWidth=1;shadow=0;dashed=0;align=center;html=1;shape=mxgraph.mockup.containers.anchor;fontSize=17;fontColor=#666666;align=left;whiteSpace=wrap;" vertex="1" parent="FBT5wMlfSQGBCRLELtxl-1">
          <mxGeometry x="60" y="12" width="110" height="26" as="geometry" />
        </mxCell>
        <mxCell id="FBT5wMlfSQGBCRLELtxl-3" value="https://sing-song-frontend.vercel.app/" style="strokeWidth=1;shadow=0;dashed=0;align=center;html=1;shape=mxgraph.mockup.containers.anchor;rSize=0;fontSize=17;fontColor=#666666;align=left;" vertex="1" parent="FBT5wMlfSQGBCRLELtxl-1">
          <mxGeometry x="130" y="60" width="250" height="26" as="geometry" />
        </mxCell>
        <UserObject label="SingSong" placeholders="1" name="Variable" id="FBT5wMlfSQGBCRLELtxl-4">
          <mxCell style="text;html=1;strokeColor=none;fillColor=none;align=center;verticalAlign=middle;whiteSpace=wrap;overflow=hidden;fontSize=30;" vertex="1" parent="FBT5wMlfSQGBCRLELtxl-1">
            <mxGeometry x="260" y="250" width="240" height="60" as="geometry" />
          </mxCell>
        </UserObject>
        <UserObject label="&lt;h1 data-v-94ec3823=&quot;&quot; style=&quot;font-size: 13px;&quot;&gt;あなたのカラオケライフをもっと楽しく、もっと便利に&lt;/h1&gt;" placeholders="1" name="Variable" id="FBT5wMlfSQGBCRLELtxl-5">
          <mxCell style="text;html=1;strokeColor=none;fillColor=none;align=center;verticalAlign=middle;whiteSpace=wrap;overflow=hidden;fontSize=13;" vertex="1" parent="FBT5wMlfSQGBCRLELtxl-1">
            <mxGeometry x="190" y="310" width="380" height="40" as="geometry" />
          </mxCell>
        </UserObject>
        <mxCell id="FBT5wMlfSQGBCRLELtxl-6" value="Sign up" style="strokeWidth=1;shadow=0;dashed=0;align=center;html=1;shape=mxgraph.mockup.buttons.button;strokeColor=#666666;fontColor=#ffffff;mainText=;buttonStyle=round;fontSize=13;fontStyle=1;fillColor=#008cff;whiteSpace=wrap;verticalAlign=middle;" vertex="1" parent="FBT5wMlfSQGBCRLELtxl-1">
          <mxGeometry x="560" y="120" width="80" height="26.67" as="geometry" />
        </mxCell>
        <mxCell id="FBT5wMlfSQGBCRLELtxl-7" value="Login" style="strokeWidth=1;shadow=0;dashed=0;align=center;html=1;shape=mxgraph.mockup.buttons.button;strokeColor=#666666;fontColor=#ffffff;mainText=;buttonStyle=round;fontSize=13;fontStyle=1;fillColor=#008cff;whiteSpace=wrap;verticalAlign=middle;" vertex="1" parent="FBT5wMlfSQGBCRLELtxl-1">
          <mxGeometry x="660" y="120" width="80" height="26.67" as="geometry" />
        </mxCell>
        <UserObject label="SingSong" placeholders="1" name="Variable" id="FBT5wMlfSQGBCRLELtxl-8">
          <mxCell style="text;html=1;strokeColor=none;fillColor=none;align=center;verticalAlign=middle;whiteSpace=wrap;overflow=hidden;fontSize=20;" vertex="1" parent="FBT5wMlfSQGBCRLELtxl-1">
            <mxGeometry x="20" y="118.33500000000001" width="110" height="30" as="geometry" />
          </mxCell>
        </UserObject>
        <UserObject label="About" placeholders="1" name="Variable" link="data:page/id,4Ap_RWVX9Wl-22E_WuD1" id="FBT5wMlfSQGBCRLELtxl-9">
          <mxCell style="text;html=1;strokeColor=none;fillColor=none;align=center;verticalAlign=middle;whiteSpace=wrap;overflow=hidden;fontSize=16;" vertex="1" parent="FBT5wMlfSQGBCRLELtxl-1">
            <mxGeometry x="130" y="118.33500000000001" width="70" height="30" as="geometry" />
          </mxCell>
        </UserObject>
      </root>
    </mxGraphModel>
  </diagram>
  <diagram id="4Ap_RWVX9Wl-22E_WuD1" name="About">
    <mxGraphModel dx="682" dy="825" grid="1" gridSize="10" guides="1" tooltips="1" connect="1" arrows="1" fold="1" page="1" pageScale="1" pageWidth="827" pageHeight="1169" math="0" shadow="0">
      <root>
        <mxCell id="0" />
        <mxCell id="1" parent="0" />
        <mxCell id="RzjEZRy9n0WKex-jUxt8-1" value="" style="strokeWidth=1;shadow=0;dashed=0;align=center;html=1;shape=mxgraph.mockup.containers.browserWindow;rSize=0;strokeColor=#666666;strokeColor2=#008cff;strokeColor3=#c4c4c4;mainText=,;recursiveResize=0;fontSize=12;" vertex="1" parent="1">
          <mxGeometry x="861" y="40" width="760" height="600" as="geometry" />
        </mxCell>
        <mxCell id="RzjEZRy9n0WKex-jUxt8-2" value="SingSong" style="strokeWidth=1;shadow=0;dashed=0;align=center;html=1;shape=mxgraph.mockup.containers.anchor;fontSize=17;fontColor=#666666;align=left;whiteSpace=wrap;" vertex="1" parent="RzjEZRy9n0WKex-jUxt8-1">
          <mxGeometry x="60" y="12" width="110" height="26" as="geometry" />
        </mxCell>
        <mxCell id="RzjEZRy9n0WKex-jUxt8-3" value="https://sing-song-frontend.vercel.app/about" style="strokeWidth=1;shadow=0;dashed=0;align=center;html=1;shape=mxgraph.mockup.containers.anchor;rSize=0;fontSize=17;fontColor=#666666;align=left;" vertex="1" parent="RzjEZRy9n0WKex-jUxt8-1">
          <mxGeometry x="130" y="60" width="250" height="26" as="geometry" />
        </mxCell>
        <UserObject label="SingSong" placeholders="1" name="Variable" id="RzjEZRy9n0WKex-jUxt8-4">
          <mxCell style="text;html=1;strokeColor=none;fillColor=none;align=center;verticalAlign=middle;whiteSpace=wrap;overflow=hidden;fontSize=30;" vertex="1" parent="RzjEZRy9n0WKex-jUxt8-1">
            <mxGeometry x="260" y="250" width="240" height="60" as="geometry" />
          </mxCell>
        </UserObject>
        <UserObject label="&lt;h1 data-v-94ec3823=&quot;&quot; style=&quot;font-size: 13px;&quot;&gt;あなたのカラオケライフをもっと楽しく、もっと便利に&lt;/h1&gt;" placeholders="1" name="Variable" id="RzjEZRy9n0WKex-jUxt8-5">
          <mxCell style="text;html=1;strokeColor=none;fillColor=none;align=center;verticalAlign=middle;whiteSpace=wrap;overflow=hidden;fontSize=13;" vertex="1" parent="RzjEZRy9n0WKex-jUxt8-1">
            <mxGeometry x="190" y="310" width="380" height="40" as="geometry" />
          </mxCell>
        </UserObject>
        <mxCell id="RzjEZRy9n0WKex-jUxt8-6" value="Sign up" style="strokeWidth=1;shadow=0;dashed=0;align=center;html=1;shape=mxgraph.mockup.buttons.button;strokeColor=#666666;fontColor=#ffffff;mainText=;buttonStyle=round;fontSize=13;fontStyle=1;fillColor=#008cff;whiteSpace=wrap;verticalAlign=middle;" vertex="1" parent="RzjEZRy9n0WKex-jUxt8-1">
          <mxGeometry x="560" y="120" width="80" height="26.67" as="geometry" />
        </mxCell>
        <mxCell id="RzjEZRy9n0WKex-jUxt8-7" value="Login" style="strokeWidth=1;shadow=0;dashed=0;align=center;html=1;shape=mxgraph.mockup.buttons.button;strokeColor=#666666;fontColor=#ffffff;mainText=;buttonStyle=round;fontSize=13;fontStyle=1;fillColor=#008cff;whiteSpace=wrap;verticalAlign=middle;" vertex="1" parent="RzjEZRy9n0WKex-jUxt8-1">
          <mxGeometry x="660" y="120" width="80" height="26.67" as="geometry" />
        </mxCell>
        <UserObject label="SingSong" placeholders="1" name="Variable" id="RzjEZRy9n0WKex-jUxt8-8">
          <mxCell style="text;html=1;strokeColor=none;fillColor=none;align=center;verticalAlign=middle;whiteSpace=wrap;overflow=hidden;fontSize=20;" vertex="1" parent="RzjEZRy9n0WKex-jUxt8-1">
            <mxGeometry x="20" y="118.33500000000001" width="110" height="30" as="geometry" />
          </mxCell>
        </UserObject>
        <UserObject label="About" placeholders="1" name="Variable" id="RzjEZRy9n0WKex-jUxt8-9">
          <mxCell style="text;html=1;strokeColor=none;fillColor=none;align=center;verticalAlign=middle;whiteSpace=wrap;overflow=hidden;fontSize=16;" vertex="1" parent="RzjEZRy9n0WKex-jUxt8-1">
            <mxGeometry x="130" y="118.33500000000001" width="70" height="30" as="geometry" />
          </mxCell>
        </UserObject>
      </root>
    </mxGraphModel>
  </diagram>
</mxfile>
